<svg xmlns="http://www.w3.org/2000/svg" xmlns:xlink="http://www.w3.org/1999/xlink" width="10pt" height="12pt" viewBox="0 0 12 14" version="1.1">
<g id="surface1">
<path style=" stroke:none;fill-rule:nonzero;fill:#fff;fill-opacity:1;" d="M 3.964844 7.875 L 2.894531 7.875 C 2.714844 7.875 2.570312 7.726562 2.570312 7.546875 L 2.570312 6.453125 C 2.570312 6.273438 2.714844 6.125 2.894531 6.125 L 3.964844 6.125 C 4.140625 6.125 4.285156 6.273438 4.285156 6.453125 L 4.285156 7.546875 C 4.285156 7.726562 4.140625 7.875 3.964844 7.875 Z M 6.855469 7.546875 L 6.855469 6.453125 C 6.855469 6.273438 6.710938 6.125 6.535156 6.125 L 5.464844 6.125 C 5.289062 6.125 5.144531 6.273438 5.144531 6.453125 L 5.144531 7.546875 C 5.144531 7.726562 5.289062 7.875 5.464844 7.875 L 6.535156 7.875 C 6.710938 7.875 6.855469 7.726562 6.855469 7.546875 Z M 9.429688 7.546875 L 9.429688 6.453125 C 9.429688 6.273438 9.285156 6.125 9.105469 6.125 L 8.035156 6.125 C 7.859375 6.125 7.714844 6.273438 7.714844 6.453125 L 7.714844 7.546875 C 7.714844 7.726562 7.859375 7.875 8.035156 7.875 L 9.105469 7.875 C 9.285156 7.875 9.429688 7.726562 9.429688 7.546875 Z M 6.855469 10.171875 L 6.855469 9.078125 C 6.855469 8.898438 6.710938 8.75 6.535156 8.75 L 5.464844 8.75 C 5.289062 8.75 5.144531 8.898438 5.144531 9.078125 L 5.144531 10.171875 C 5.144531 10.351562 5.289062 10.5 5.464844 10.5 L 6.535156 10.5 C 6.710938 10.5 6.855469 10.351562 6.855469 10.171875 Z M 4.285156 10.171875 L 4.285156 9.078125 C 4.285156 8.898438 4.140625 8.75 3.964844 8.75 L 2.894531 8.75 C 2.714844 8.75 2.570312 8.898438 2.570312 9.078125 L 2.570312 10.171875 C 2.570312 10.351562 2.714844 10.5 2.894531 10.5 L 3.964844 10.5 C 4.140625 10.5 4.285156 10.351562 4.285156 10.171875 Z M 9.429688 10.171875 L 9.429688 9.078125 C 9.429688 8.898438 9.285156 8.75 9.105469 8.75 L 8.035156 8.75 C 7.859375 8.75 7.714844 8.898438 7.714844 9.078125 L 7.714844 10.171875 C 7.714844 10.351562 7.859375 10.5 8.035156 10.5 L 9.105469 10.5 C 9.285156 10.5 9.429688 10.351562 9.429688 10.171875 Z M 12 3.0625 L 12 12.6875 C 12 13.414062 11.425781 14 10.714844 14 L 1.285156 14 C 0.574219 14 0 13.414062 0 12.6875 L 0 3.0625 C 0 2.335938 0.574219 1.75 1.285156 1.75 L 2.570312 1.75 L 2.570312 0.328125 C 2.570312 0.148438 2.714844 0 2.894531 0 L 3.964844 0 C 4.140625 0 4.285156 0.148438 4.285156 0.328125 L 4.285156 1.75 L 7.714844 1.75 L 7.714844 0.328125 C 7.714844 0.148438 7.859375 0 8.035156 0 L 9.105469 0 C 9.285156 0 9.429688 0.148438 9.429688 0.328125 L 9.429688 1.75 L 10.714844 1.75 C 11.425781 1.75 12 2.335938 12 3.0625 Z M 10.714844 12.523438 L 10.714844 4.375 L 1.285156 4.375 L 1.285156 12.523438 C 1.285156 12.613281 1.359375 12.6875 1.445312 12.6875 L 10.554688 12.6875 C 10.640625 12.6875 10.714844 12.613281 10.714844 12.523438 Z M 10.714844 12.523438 "/>
</g>
</svg>
